<?xml version="1.0"?>
<svg xmlns="http://www.w3.org/2000/svg" xmlns:xlink="http://www.w3.org/1999/xlink" version="1.1" id="Capa_1" x="0px" y="0px" viewBox="0 0 511.999 511.999" style="enable-background:new 0 0 511.999 511.999;" xml:space="preserve" width="15px" height="15px"><g transform="matrix(-1 0 0 1 511.999 0)"><g>
	<g>
		<path d="M505.584,297.925c0-8.441-6.844-15.285-15.285-15.285h-30.591V74.24c0-40.936-33.305-74.24-74.241-74.24    s-74.24,33.304-74.24,74.24v27.864c0,8.441,6.844,15.285,15.285,15.285s15.285-6.844,15.285-15.285V74.24    c0-24.08,19.59-43.67,43.67-43.67c24.08,0,43.67,19.59,43.67,43.67v208.399H21.7c-8.441,0-15.285,6.844-15.285,15.285    c0,68.984,43.631,127.962,104.744,150.808c-11.756,12.358-19.027,29.304-19.027,47.982c0,8.441,6.844,15.285,15.285,15.285    s15.285-6.844,15.285-15.285c0-20.871,15.925-37.851,35.501-37.851c0.719,0,194.875,0,195.594,0    c19.576,0,35.502,16.98,35.502,37.851c0,8.441,6.844,15.285,15.285,15.285c8.441,0,15.285-6.844,15.285-15.285    c0-18.677-7.272-35.623-19.027-47.982C461.954,425.887,505.584,366.908,505.584,297.925z M344.645,428.294h-177.29    c-66.718,0-121.89-50.372-129.479-115.084h436.248C466.535,377.922,411.361,428.294,344.645,428.294z" data-original="#000000" class="active-path" data-old_color="#000000" fill="#297EFF"/>
	</g>
</g><g>
	<g>
		<path d="M326.512,143.911c-8.441,0-15.285,6.844-15.285,15.285v13.247c0,8.441,6.844,15.285,15.285,15.285    s15.285-6.844,15.285-15.285v-13.247C341.796,150.754,334.953,143.911,326.512,143.911z" data-original="#000000" class="active-path" data-old_color="#000000" fill="#297EFF"/>
	</g>
</g><g>
	<g>
		<path d="M326.512,217.279c-8.441,0-15.285,6.844-15.285,15.285v13.247c0,8.441,6.844,15.285,15.285,15.285    s15.285-6.844,15.285-15.285v-13.247C341.796,224.122,334.953,217.279,326.512,217.279z" data-original="#000000" class="active-path" data-old_color="#000000" fill="#297EFF"/>
	</g>
</g></g> </svg>
